<svg xmlns="http://www.w3.org/2000/svg" xmlns:xlink="http://www.w3.org/1999/xlink" width="500" zoomAndPan="magnify" viewBox="0 0 375 374.999991" height="500" preserveAspectRatio="xMidYMid meet" version="1.0"><defs><clipPath id="01185f951f"><path d="M 30 193 L 344.976562 193 L 344.976562 331.5 L 30 331.5 Z M 30 193 " clip-rule="nonzero"/></clipPath><clipPath id="e579e9dd56"><path d="M 30 37.5 L 344.976562 37.5 L 344.976562 183 L 30 183 Z M 30 37.5 " clip-rule="nonzero"/></clipPath></defs><g clip-path="url(#01185f951f)"><path stroke-linecap="round" transform="matrix(1.411923, 0, 0, 1.412865, 30.822578, 37.703314)" fill="none" stroke-linejoin="round" d="M 5.371166 115.559059 L 216.560905 115.559059 L 216.560905 202.408855 L 5.371166 202.408855 Z M 5.371166 115.559059 " stroke="#000000" stroke-width="10.742" stroke-opacity="1" stroke-miterlimit="10"/></g><g clip-path="url(#e579e9dd56)"><path stroke-linecap="round" transform="matrix(1.411923, 0, 0, 1.412865, 30.822578, 37.703314)" fill="none" stroke-linejoin="round" d="M 5.371166 97.25903 L 28.71865 5.369054 L 193.290886 5.369054 L 216.569204 97.25903 " stroke="#000000" stroke-width="10.742" stroke-opacity="1" stroke-miterlimit="10"/></g><path stroke-linecap="round" transform="matrix(1.411923, 0, 0, 1.412865, 30.822578, 37.703314)" fill="none" stroke-linejoin="round" d="M 80.800223 153.958983 L 80.800223 169.499769 L 141.140148 169.499769 L 141.140148 153.958983 " stroke="#000000" stroke-width="10.742" stroke-opacity="1" stroke-miterlimit="10"/></svg>